# xmcd
#
# Track frame offsets: 
#        150
#        40766
#        88929
#        124253
#        148045
#        175626
#        204273
#        227038
#        253916
#        288326
#        316899
#
# Disc length: 4645 seconds
#
# Revision: 0
# Processed by: cddbd v1.5.1PL2 Copyright (c) Steve Scherf et al.
# Submitted via: ExactAudioCopy v0.95b3
#
DISCID=9a12230b
DTITLE=Susanna Tamaro - Antworte mir CD4
DYEAR=1900
DGENRE=Lesung
TTITLE0=Antworte mir CD4
TTITLE1=Antworte mir CD4
TTITLE2=Antworte mir CD4
TTITLE3=Antworte mir CD4
TTITLE4=Antworte mir CD4
TTITLE5=Antworte mir CD4
TTITLE6=Antworte mir CD4
TTITLE7=Antworte mir CD4
TTITLE8=Antworte mir CD4
TTITLE9=Antworte mir CD4
TTITLE10=Antworte mir CD4
EXTD=
EXTT0=
EXTT1=
EXTT2=
EXTT3=
EXTT4=
EXTT5=
EXTT6=
EXTT7=
EXTT8=
EXTT9=
EXTT10=
PLAYORDER=
